<?xml version="1.0" standalone="no"?>
<!DOCTYPE svg PUBLIC "-//W3C//DTD SVG 20010904//EN"
 "http://www.w3.org/TR/2001/REC-SVG-20010904/DTD/svg10.dtd">
<svg version="1.0" xmlns="http://www.w3.org/2000/svg"
 width="300.000000pt" height="300.000000pt" viewBox="0 0 300.000000 300.000000"
 preserveAspectRatio="xMidYMid meet">
<metadata>
Created by potrace 1.10, written by Peter Selinger 2001-2011
</metadata>
<g transform="translate(0.000000,300.000000) scale(0.100000,-0.100000)"
fill="#000000" stroke="none">
<path d="M867 2894 c-110 -35 -183 -159 -158 -269 16 -71 60 -128 123 -159
157 -78 339 33 338 206 -1 157 -155 269 -303 222z m183 -58 c54 -35 84 -96 83
-166 0 -67 -20 -108 -70 -149 -54 -45 -101 -57 -165 -42 -162 37 -215 225 -95
338 43 41 81 53 150 49 41 -3 70 -12 97 -30z"/>
<path d="M869 2823 c-42 -22 -59 -38 -77 -73 -34 -67 -19 -150 27 -150 22 0
167 133 185 169 17 33 11 48 -24 66 -39 20 -48 19 -111 -12z m125 -21 c7 -11
-178 -195 -187 -186 -13 13 -7 95 8 125 23 43 71 69 127 69 26 0 49 -4 52 -8z"/>
<path d="M953 2663 c-94 -98 -104 -125 -52 -147 86 -36 209 55 209 155 0 38
-29 79 -57 79 -9 0 -54 -39 -100 -87z m123 42 c21 -85 -52 -175 -143 -175 -62
0 -58 14 34 107 48 50 91 91 95 92 4 0 10 -10 14 -24z"/>
<path d="M2152 2885 c-115 -59 -142 -200 -55 -293 l33 -34 -93 -122 c-50 -67
-184 -242 -297 -389 l-204 -267 -125 0 -125 0 101 103 c119 120 136 156 113
239 -30 105 -154 166 -256 123 -38 -16 -237 -204 -278 -264 -34 -48 -43 -115
-23 -164 l16 -37 -418 0 c-402 0 -419 -1 -436 -20 -16 -17 -17 -40 -12 -272 2
-139 7 -264 11 -278 3 -14 11 -49 17 -79 52 -251 258 -516 496 -637 93 -47 91
-46 75 -52 -28 -9 -84 -67 -104 -106 -16 -29 -23 -65 -26 -127 -4 -81 -3 -87
19 -103 21 -14 99 -16 830 -16 930 0 839 -11 839 106 0 38 -4 84 -10 103 -14
50 -56 106 -95 127 -19 10 -35 21 -35 24 0 3 21 13 46 24 78 32 196 116 275
195 127 128 204 261 255 443 25 87 27 110 31 359 4 189 2 273 -6 288 -11 20
-19 21 -153 21 -111 0 -138 3 -131 13 14 17 193 452 193 467 0 8 8 10 23 5 12
-3 42 -9 67 -11 60 -7 124 26 165 84 37 54 40 125 7 188 -24 48 -29 51 -353
238 -272 157 -293 163 -377 121z m170 -41 c29 -15 63 -34 78 -44 14 -10 56
-35 94 -56 38 -22 81 -46 95 -54 14 -8 53 -30 86 -49 161 -91 195 -126 195
-203 0 -49 -21 -90 -62 -121 -44 -33 -80 -40 -131 -26 -41 11 -42 10 -72 -24
-16 -20 -45 -75 -64 -124 -18 -48 -44 -110 -57 -138 -37 -80 -74 -185 -74
-211 0 -36 29 -44 149 -44 101 0 111 -2 121 -21 13 -24 12 -349 -2 -474 -24
-223 -129 -432 -296 -589 -62 -58 -131 -110 -187 -138 -22 -11 -55 -31 -73
-45 -28 -21 -31 -27 -20 -46 6 -12 26 -35 44 -50 40 -35 74 -119 74 -185 0
-84 76 -77 -809 -77 -617 0 -793 3 -802 12 -16 16 -16 116 -1 163 7 19 34 58
62 87 27 29 50 56 50 60 0 18 -19 33 -111 87 -108 65 -199 142 -264 225 -25
31 -50 61 -55 68 -19 23 -79 138 -95 183 -9 25 -21 54 -25 65 -31 77 -43 192
-45 440 -1 162 1 203 13 217 14 16 48 18 411 18 461 0 436 -6 422 93 -6 48 -5
65 11 96 28 57 247 268 289 278 103 27 199 -43 199 -145 0 -49 -37 -107 -124
-192 -69 -68 -82 -101 -47 -120 25 -13 226 -13 251 0 10 5 123 146 251 312
127 167 250 327 273 356 90 116 92 125 41 196 -64 91 -37 192 65 238 33 15 92
7 142 -18z"/>
<path d="M2181 2832 c-68 -33 -88 -125 -41 -185 19 -23 156 -108 410 -252 122
-69 139 -76 178 -72 73 8 118 70 102 141 -14 64 -32 77 -277 217 -21 12 -63
35 -93 51 -30 17 -62 36 -70 44 -19 16 -116 60 -150 67 -14 3 -40 -2 -59 -11z
m342 -173 c144 -83 267 -158 274 -167 21 -28 16 -88 -11 -119 -45 -52 -71 -44
-356 121 -140 81 -263 156 -272 167 -28 33 -24 95 8 124 50 47 72 39 357 -126z"/>
<path d="M2182 2730 c2 -6 30 -27 63 -46 33 -18 93 -53 133 -76 244 -143 289
-161 336 -136 29 15 29 15 -30 14 -58 -1 -63 1 -259 115 -249 144 -248 144
-243 129z"/>
<path d="M2172 2503 c-31 -28 -49 -52 -269 -343 -64 -85 -120 -157 -123 -160
-15 -12 -90 -120 -90 -129 0 -6 -6 -14 -13 -18 -7 -4 -18 -21 -25 -37 -26 -59
-20 -60 343 -60 l326 0 27 30 c15 16 28 36 30 44 3 15 51 137 77 195 7 17 30
71 50 120 21 50 44 104 51 122 19 42 18 57 -5 77 -23 21 -220 136 -233 136 -4
0 -8 3 -8 8 0 9 -74 42 -94 42 -7 0 -27 -12 -44 -27z m213 -88 c91 -53 159
-99 158 -107 -1 -7 -50 -129 -109 -270 l-108 -258 -339 0 -339 0 39 48 c22 26
148 190 282 365 133 174 245 317 249 317 4 -1 79 -43 167 -95z"/>
<path d="M2237 2408 c70 -72 88 -119 88 -223 0 -107 -22 -162 -93 -227 -76
-69 -114 -81 -302 -88 -131 -5 -146 -7 -75 -9 245 -8 314 8 395 89 73 74 95
127 95 235 0 72 -4 99 -22 137 -25 52 -92 128 -114 128 -7 0 5 -19 28 -42z"/>
<path d="M1265 2168 c-29 -16 -65 -50 -77 -73 -11 -20 -11 -20 13 0 13 11 28
26 32 33 12 19 63 42 92 42 16 0 38 -12 56 -29 41 -42 41 -96 -2 -137 -17 -16
-35 -38 -41 -48 -9 -17 -7 -16 22 4 41 29 75 98 66 135 -12 46 -59 85 -103 85
-21 0 -47 -6 -58 -12z"/>
<path d="M1180 2061 c0 -11 104 -112 128 -125 9 -4 -14 24 -53 63 -73 75 -75
76 -75 62z"/>
<path d="M1062 1983 c-49 -46 -65 -97 -49 -149 14 -47 78 -80 135 -69 47 9
112 74 112 112 0 32 -108 143 -139 143 -11 0 -37 -17 -59 -37z m121 -40 c37
-36 67 -69 66 -72 0 -3 -23 -25 -50 -48 -59 -51 -93 -55 -137 -18 -33 28 -46
63 -34 93 5 14 81 111 88 112 0 0 31 -30 67 -67z"/>
<path d="M208 1710 c-30 -8 -48 -44 -48 -101 0 -88 -22 -83 402 -89 323 -4
373 -7 373 -20 0 -13 -50 -16 -372 -20 -286 -4 -375 -8 -385 -18 -30 -30 -15
-244 27 -381 80 -261 282 -476 540 -574 139 -53 181 -58 595 -64 491 -7 616 7
780 86 131 63 141 70 260 179 171 158 264 365 277 619 6 110 6 111 -20 137
l-26 26 -366 0 c-237 0 -365 4 -365 10 0 6 128 10 364 10 352 0 364 1 390 21
23 18 26 27 26 83 0 53 -4 66 -24 85 l-24 23 -1190 -4 c-655 -1 -1201 -5
-1214 -8z m2420 -90 l-3 -71 -382 1 c-336 0 -383 -1 -397 -15 -9 -9 -16 -25
-16 -35 0 -10 7 -26 16 -35 14 -14 61 -15 397 -15 l382 1 -2 -107 c-10 -423
-302 -773 -715 -858 -113 -23 -892 -23 -1006 0 -346 70 -625 348 -696 694 -8
41 -16 119 -17 173 l-2 98 377 -1 c247 0 383 3 396 10 13 7 20 21 20 40 0 19
-7 33 -20 40 -13 7 -149 10 -396 10 l-376 -1 -1 71 -2 70 1223 0 1223 0 -3
-70z"/>
<path d="M1111 1600 c-1 -61 7 -100 20 -100 9 0 1 88 -12 130 -5 19 -7 11 -8
-30z"/>
<path d="M1345 1543 c-60 -8 -151 -44 -205 -81 -67 -47 -140 -141 -170 -219
-27 -69 -37 -189 -21 -260 53 -250 305 -414 553 -362 112 24 224 100 292 198
100 143 102 361 6 511 -69 107 -194 189 -320 209 -65 11 -80 11 -135 4z m180
-48 c115 -30 210 -111 270 -230 78 -152 53 -333 -65 -479 -66 -82 -177 -139
-290 -150 -170 -16 -355 95 -431 259 -33 71 -39 98 -40 185 -1 119 35 212 115
295 112 117 279 162 441 120z"/>
<path d="M1318 1464 c-85 -20 -150 -57 -202 -115 -76 -85 -106 -160 -106 -270
0 -195 134 -355 329 -391 123 -23 269 24 353 113 121 129 146 316 63 465 -90
160 -264 239 -437 198z m260 -53 c75 -41 135 -103 170 -179 24 -50 27 -69 27
-157 0 -89 -3 -106 -29 -157 -31 -63 -111 -145 -172 -176 -232 -118 -519 43
-541 304 -14 166 78 315 234 380 50 21 70 24 153 21 85 -2 101 -6 158 -36z"/>
<path d="M1282 1348 c-7 -7 -12 -38 -12 -70 l0 -58 -51 0 c-87 0 -89 -3 -89
-138 0 -79 4 -122 12 -130 7 -7 38 -12 70 -12 l58 0 0 -58 c0 -32 5 -63 12
-70 8 -8 51 -12 130 -12 136 0 144 5 136 91 l-5 49 63 0 c80 0 84 6 84 143 0
126 -7 137 -92 137 l-56 0 6 45 c3 31 0 52 -12 70 -16 24 -20 25 -129 25 -75
0 -117 -4 -125 -12z m228 -24 c6 -6 12 -32 14 -58 2 -26 7 -51 12 -56 5 -4 32
-11 59 -15 28 -3 54 -10 59 -15 5 -5 9 -53 8 -106 -1 -107 -4 -114 -63 -114
-48 0 -67 -17 -74 -70 -4 -25 -11 -51 -17 -57 -14 -17 -189 -18 -206 -1 -7 7
-12 30 -12 52 0 48 -23 76 -61 76 -15 0 -39 4 -53 10 -26 9 -26 11 -26 109 0
57 4 103 10 106 6 4 32 8 58 11 55 5 72 23 72 75 0 58 15 66 119 65 49 -1 95
-6 101 -12z"/>
<path d="M1350 1254 c-6 -14 -10 -40 -10 -58 0 -43 -14 -54 -75 -59 -48 -3
-48 -3 12 -5 73 -2 83 8 83 87 l0 50 48 4 47 3 -48 2 c-43 2 -49 -1 -57 -24z"/>
<path d="M1461 1250 c-7 -15 -6 -78 1 -97 7 -21 14 -23 70 -22 l63 2 -52 6
c-28 4 -55 10 -59 14 -5 4 -11 29 -15 55 -3 26 -7 45 -8 42z"/>
<path d="M1206 1098 c-5 -16 -5 -36 0 -45 7 -16 8 -15 11 5 3 12 3 32 0 45 -3
21 -4 20 -11 -5z"/>
<path d="M1212 1025 c3 -3 29 -8 58 -11 29 -3 57 -7 62 -10 4 -3 8 -23 8 -45
0 -22 4 -49 10 -59 12 -23 58 -34 91 -21 20 8 16 10 -28 10 l-53 1 0 54 c0 73
-14 86 -92 86 -34 0 -59 -2 -56 -5z"/>
<path d="M1466 1008 c-10 -17 -12 -35 -6 -68 l7 -45 2 46 c1 57 17 71 77 74
69 4 66 15 -4 15 -53 0 -64 -3 -76 -22z"/>
<path d="M1810 772 c0 -35 452 -65 506 -34 14 9 -24 11 -161 12 -165 0 -243 6
-317 25 -16 4 -28 3 -28 -3z"/>
<path d="M855 401 c-159 -9 -211 -44 -222 -153 -10 -95 -68 -89 767 -88 560 0
728 3 749 13 22 10 26 19 29 65 4 64 -20 109 -76 144 l-37 23 -550 1 c-302 0
-599 -2 -660 -5z m1231 -47 c45 -33 67 -70 71 -121 l5 -48 -753 2 c-413 2
-754 5 -756 7 -3 2 -1 25 3 51 8 56 51 110 98 124 18 6 300 9 668 8 626 -2
637 -2 664 -23z"/>
<path d="M980 333 c0 -15 32 -41 72 -57 30 -13 114 -15 539 -16 313 0 510 4
519 10 10 6 -163 10 -508 10 -557 0 -549 -1 -604 48 -10 8 -18 11 -18 5z"/>
<path d="M515 2371 c-96 -43 -158 -164 -135 -262 52 -215 337 -253 435 -58 98
193 -103 407 -300 320z m185 -36 c87 -45 132 -162 97 -248 -46 -108 -162 -157
-268 -113 -113 47 -157 214 -79 298 11 12 20 24 20 28 0 11 57 40 96 49 44 10
97 4 134 -14z"/>
<path d="M538 2306 c-41 -24 -78 -66 -78 -89 0 -29 29 -38 144 -44 112 -6 117
-5 141 17 l25 23 -21 37 c-25 44 -90 80 -140 79 -19 0 -51 -11 -71 -23z m126
-20 c31 -13 76 -59 76 -77 0 -5 -61 -9 -136 -9 l-137 0 25 33 c28 36 81 67
116 67 12 0 37 -6 56 -14z"/>
<path d="M533 2132 c-63 -4 -81 -21 -64 -59 21 -46 85 -83 142 -83 47 0 113
35 139 74 17 27 17 31 3 53 -17 26 -24 26 -220 15z m207 -31 c0 -19 -63 -71
-99 -82 -32 -10 -45 -8 -83 9 -25 11 -55 34 -67 51 l-22 31 135 0 c77 0 136
-4 136 -9z"/>
</g>
</svg>
